<svg width="50" height="51" viewBox="0 0 50 51" fill="none" xmlns="http://www.w3.org/2000/svg">
<path d="M25.0012 15.9309C19.8349 15.9309 15.6258 20.2223 15.6258 25.4895C15.6258 30.7567 19.8349 35.0481 25.0012 35.0481C30.1675 35.0481 34.3767 30.7567 34.3767 25.4895C34.3767 20.2223 30.1675 15.9309 25.0012 15.9309ZM49.0649 23.9462L39.8164 19.2366L43.088 9.23995C43.5275 7.88582 42.2677 6.60139 40.9493 7.0594L31.1441 10.3949L26.515 0.955857C25.8899 -0.318619 24.1125 -0.318619 23.4875 0.955857L18.8681 10.385L9.05317 7.04944C7.72498 6.60139 6.46516 7.88582 6.9144 9.22999L10.186 19.2267L0.937546 23.9462C-0.312515 24.5834 -0.312515 26.3956 0.937546 27.0328L10.186 31.7424L6.9144 41.749C6.47492 43.1032 7.73475 44.3876 9.05317 43.9296L18.8583 40.594L23.4777 50.0232C24.1027 51.2977 25.8802 51.2977 26.5052 50.0232L31.1246 40.594L40.9297 43.9296C42.2579 44.3776 43.5177 43.0932 43.0685 41.749L39.7969 31.7524L49.0453 27.0428C50.3149 26.3956 50.3149 24.5834 49.0649 23.9462ZM33.8395 34.5005C28.9662 39.4689 21.0362 39.4689 16.1629 34.5005C11.2896 29.532 11.2896 21.447 16.1629 16.4786C21.0362 11.5101 28.9662 11.5101 33.8395 16.4786C38.7128 21.447 38.7128 29.532 33.8395 34.5005Z" fill="#FED50D"/>
</svg>
